<svg width="112" height="90" viewBox="0 0 112 90" fill="none" xmlns="http://www.w3.org/2000/svg">
<path d="M22.7629 83.2505C21.313 83.2505 20.254 83.9816 20.254 85.3807C20.254 86.6913 21.1745 87.6047 22.556 87.6047C23.4774 87.6047 24.3987 87.0927 24.9737 86.3608V84.4945C24.9737 83.8721 24.1673 83.2505 22.7629 83.2505ZM54.102 82.9919C54.1703 85.4482 55.7368 87.2251 58.4307 87.2251C60.0664 87.2251 61.3104 86.3389 61.7469 85.7822C61.9538 85.9382 62.1624 86.1714 62.1624 86.714C62.1624 87.9361 60.688 89.6262 57.2569 89.6262C53.8039 89.6262 50.9926 86.8727 50.9926 83.2733C50.9926 79.3101 53.5953 76.4778 57.4419 76.4778C60.9387 76.4778 62.5525 79.0533 62.5525 81.2466C62.5525 81.8935 62.414 82.4923 62.137 82.9919H54.102ZM58.9847 81.4044C59.537 81.4044 59.5606 81.0809 59.5606 80.6479C59.537 79.3557 58.5219 78.1591 56.9808 78.1591C54.9777 78.1591 54.194 79.8379 54.1256 81.4044H58.9847ZM91.473 82.7596C91.473 85.7612 91.8894 87.2909 93.8249 87.2909C95.9393 87.2909 96.5179 85.4026 96.5179 83.6871V80.4129C96.5179 79.2882 95.9849 78.8517 94.7664 78.9832C94.2606 77.7191 95.9394 76.9144 96.887 76.7294C97.1833 76.6838 97.4611 76.6382 97.7171 76.6382C99.0505 76.6382 99.5624 77.4701 99.5624 78.7132C99.5624 79.1699 99.5177 80.0027 99.5177 83.4478C99.5177 84.9047 99.4941 85.6735 99.4941 85.9146C99.4941 87.0489 100.019 87.6266 101.237 87.4942C101.736 88.761 100.067 89.3614 99.1154 89.5376C98.8235 89.5815 98.5578 89.6262 98.3387 89.6262C97.0728 89.6262 96.816 88.8048 96.5609 87.6275C96.3821 87.8484 96.2173 88.029 95.8736 88.3603C95.0444 89.137 93.9626 89.6042 92.7406 89.6042C91.4046 89.6042 90.2764 89.0914 89.562 88.2499C88.4575 86.9393 88.4575 85.2501 88.4575 82.7833V80.4138C88.4575 79.2891 87.9271 78.8525 86.7077 78.984C86.201 77.72 87.8833 76.9152 88.8265 76.7303C89.1254 76.6847 89.4007 76.6391 89.6549 76.6391C90.9891 76.6391 91.4967 77.471 91.4967 78.714L91.473 82.7596ZM85.6487 83.0174C85.6487 79.1234 82.9549 76.4769 79.224 76.4769C75.771 76.4769 72.7073 79.1234 72.7073 83.0174C72.7073 86.9604 75.5852 89.6034 79.1092 89.6034C82.8383 89.6034 85.6487 86.9165 85.6487 83.0174ZM27.8526 86.4484C27.8526 87.4416 28.496 87.7581 29.6251 87.9141C29.5558 89.0678 28.7493 89.5148 27.8061 89.6034C26.7463 89.6919 25.7101 89.201 25.2963 88.0947C24.8116 88.5348 23.3844 89.6472 21.519 89.6472C18.9637 89.6472 17.0518 87.9352 17.0518 85.6034C17.0518 83.1383 19.1933 81.6779 22.2098 81.6779C23.2477 81.6779 24.3277 81.8935 24.9729 82.2275V80.5769C24.9729 79.098 24.3277 78.1591 22.6481 78.1591C22.3018 78.1591 21.5427 78.2503 20.9431 78.4782C21.0123 78.7123 21.0597 78.9621 21.0597 79.1918C21.0597 80.0947 20.4837 80.8267 19.5168 80.8267C18.6639 80.8267 18.0187 80.1394 18.0187 79.2619C18.0187 77.6498 20.0463 76.476 22.8558 76.476C25.0895 76.476 26.4491 77.0055 27.1627 77.9251C27.8061 78.7342 27.8526 79.9781 27.8526 81.7734V86.4484ZM82.3562 83.2067C82.3562 86.1986 81.0658 87.8247 79.2477 87.8247C77.6356 87.8247 76.07 86.1995 76.07 82.6509C76.07 79.8861 77.221 78.16 79.1092 78.16C80.9738 78.1594 82.3562 80.0728 82.3562 83.2067ZM36.9702 78.665C37.0395 79.4504 37.7075 80.0009 38.4894 80.0009C39.48 80.0009 40.0787 79.1226 40.0787 78.2722C40.0787 77.0739 39.1118 76.4533 38.144 76.4533C37.0395 76.4533 35.8648 77.2834 35.1977 78.5247L35.1513 78.5475C34.9444 77.4447 34.414 76.6128 33.3086 76.6128C33.0553 76.6128 32.7791 76.6601 32.4802 76.7513C31.5589 77.0274 30.2001 77.7392 30.7077 79.0051C31.9972 78.757 32.4574 79.1909 32.4574 80.3156V85.6709C32.4574 86.7342 32.3198 87.1795 31.9507 87.4916C31.6045 87.7563 31.2372 87.8659 31.0066 87.9115C30.4771 89.0651 31.5133 89.4245 34.0695 89.4245C36.6257 89.4245 37.5006 89.066 36.9711 87.9115C36.7406 87.865 36.0963 87.7555 35.7509 87.4916C35.3818 87.1795 35.2214 86.7342 35.2214 85.6709V82.4405C35.2207 79.5609 36.2795 78.8035 36.9702 78.665ZM68.6555 76.7978H71.9481C72.34 77.7401 71.8105 78.5001 71.0732 78.5703C70.8427 78.5948 70.5894 78.5948 70.3597 78.5948C69.7601 78.5948 69.1622 78.5475 68.7476 78.5475V85.6717C68.7476 86.7351 68.9317 87.1804 69.2999 87.4925C69.6461 87.7572 70.4526 87.8668 70.6832 87.9124C71.2126 89.066 69.9678 89.4254 67.4125 89.4254C64.8572 89.4254 63.7982 89.0669 64.3268 87.9124C64.5565 87.8659 64.9264 87.7563 65.2709 87.4925C65.6391 87.1804 65.7767 86.7351 65.7767 85.6717V78.4993L63.8429 78.4309C63.4511 77.4903 63.9805 76.8205 64.7634 76.8205H65.732V75.8992C65.732 74.0338 66.0765 72.9967 66.5376 72.306C67.2503 71.2006 68.4715 70.4414 70.3816 70.4414C72.8002 70.4414 74.7568 71.5696 74.7568 73.2729C74.7568 74.0101 74.2501 74.9078 73.1912 74.9078C72.4092 74.9078 71.672 74.2398 71.672 73.4123C71.672 73.0651 71.8105 72.6969 71.9937 72.4681C71.7184 72.1455 71.1425 71.9834 70.5894 71.9834C69.0001 71.9834 68.6555 73.158 68.6555 74.6316V76.7978ZM47.4476 78.6649C47.5168 79.4504 48.1848 80.0009 48.9676 80.0009C49.9582 80.0009 50.556 79.1225 50.556 78.2722C50.556 77.0739 49.5891 76.4533 48.6222 76.4533C47.5168 76.4533 46.3421 77.2834 45.6759 78.5247L45.6286 78.5475C45.4226 77.4447 44.8922 76.6128 43.7868 76.6128C43.5343 76.6128 43.2573 76.6601 42.9584 76.7513C42.0362 77.0274 40.6774 77.7392 41.185 79.0051C42.4745 78.757 42.9339 79.1909 42.9339 80.3156V85.6709C42.9339 86.7342 42.7971 87.1795 42.428 87.4916C42.0827 87.7563 41.7154 87.8659 41.4857 87.9115C40.9553 89.0651 41.9924 89.4245 44.5468 89.4245C47.1022 89.4245 47.9788 89.066 47.4484 87.9115C47.2188 87.865 46.5744 87.7555 46.2282 87.4916C45.86 87.1795 45.6987 86.7342 45.6987 85.6709V82.4405C45.698 79.5608 46.7568 78.8035 47.4476 78.6649ZM108.734 78.6649C108.811 79.4504 109.484 80.0009 110.27 80.0009C111.247 80.0009 111.846 79.1225 111.846 78.2722C111.846 77.0739 110.893 76.4532 109.912 76.4532C108.811 76.4532 107.649 77.2834 106.984 78.5247L106.916 78.5474C106.715 77.4447 106.18 76.6127 105.095 76.6127C104.825 76.6127 104.563 76.6601 104.247 76.7513C103.339 77.0274 101.984 77.7392 102.478 79.005C103.772 78.7569 104.225 79.1909 104.225 80.3156V85.6708C104.225 86.7342 104.093 87.1795 103.712 87.4916C103.382 87.7563 103.002 87.8659 102.782 87.9115C102.247 89.0651 103.293 89.4245 105.848 89.4245C108.403 89.4245 109.267 89.066 108.733 87.9115C108.514 87.865 107.869 87.7554 107.511 87.4916C107.16 87.1795 107.005 86.7342 107.005 85.6708V82.4405C107.006 79.5608 108.046 78.8034 108.734 78.6649Z" fill="white"/>
<path d="M0 80.471C0 86.282 4.00526 89.7236 8.35766 89.7236C12.2726 89.7236 15.0121 86.9711 15.0121 84.6796C15.0121 83.4593 14.2529 82.5722 13.2623 82.5722C12.249 82.5722 11.3978 83.2595 11.3978 84.4403C11.3978 85.1942 11.8115 85.6158 12.1113 85.948C11.581 86.9719 10.4528 87.8144 8.70217 87.8144C5.80145 87.8144 3.70634 84.7927 3.70634 80.4473C3.70634 76.0966 5.70853 73.0565 8.61101 73.0565C10.3616 73.0565 11.4889 73.9086 12.0193 74.9228C11.7195 75.2674 11.3057 75.682 11.3057 76.442C11.3057 77.6167 12.1578 78.3066 13.1712 78.3066C14.1617 78.3066 14.92 77.4116 14.92 76.1887C14.92 73.9077 12.1806 71.1455 8.26562 71.1455C3.91234 71.1448 0 74.922 0 80.471Z" fill="white"/>
<path d="M37.7157 2.00135L13.2835 25.6376C12.0632 26.6737 11.2839 27.8905 11.2839 29.6314C11.2839 31.3645 12.0641 32.5856 13.2835 33.6297L37.7157 57.258C37.8726 57.4184 38.0242 57.4824 38.1531 57.4824C38.3845 57.4824 38.5441 57.272 38.5371 57.0248C38.5301 56.8793 38.4669 56.7119 38.3223 56.5672C32.5875 49.4421 28.4148 41.2703 28.4148 29.7173C28.4148 18.1574 32.5875 9.82515 38.3223 2.69476C38.4669 2.55187 38.53 2.38707 38.5371 2.23804C38.5449 1.98557 38.3845 1.78132 38.1531 1.78132C38.0242 1.77883 37.8726 1.84181 37.7157 2.00135" fill="white"/>
<path d="M56.4987 0C46.9322 0 43.1943 13.5569 43.1943 29.7155C43.1943 45.8795 46.9322 59.2558 56.4987 59.2558C62.2397 59.2558 67.133 55.8939 67.1488 53.1308C67.1513 52.526 66.9182 51.9465 66.4106 51.4407C63.6896 48.8118 62.6254 46.1845 62.6175 43.8659C62.6 39.4398 66.4396 36.1429 69.9793 36.1429C74.8454 36.1429 77.7155 39.9676 77.7155 44.9205C77.7155 49.6139 75.7159 53.5227 73.5402 56.6531C73.4543 56.7811 73.4157 56.924 73.4157 57.0493C73.4175 57.2948 73.5621 57.4964 73.7786 57.4964C73.9101 57.4964 74.0644 57.4263 74.2327 57.2571L98.671 33.6288C99.8912 32.5856 100.671 31.3636 100.671 29.6305C100.671 27.8904 99.8904 26.6728 98.671 25.6366L74.2327 2.00044C74.0653 1.83301 73.911 1.762 73.7786 1.762C73.5603 1.762 73.4174 1.96537 73.4157 2.2117C73.4157 2.33793 73.4542 2.47907 73.5402 2.60881C75.715 5.73483 77.7155 9.64804 77.7155 14.3379C77.7155 19.2873 74.8454 23.1155 69.9793 23.1155C66.4396 23.1155 62.6 19.8212 62.6175 15.3943C62.6254 13.0756 63.6896 10.4458 66.4106 7.81942C66.9182 7.31098 67.1514 6.7368 67.1488 6.13106C67.133 3.36358 62.2397 0 56.4987 0Z" fill="white"/>
</svg>
