<svg width="87" height="89" viewBox="0 0 87 89" fill="none" xmlns="http://www.w3.org/2000/svg">
<path d="M59.2148 51.3238C53.639 51.3238 49.6091 55.9864 49.6091 61.165C49.6091 66.3437 53.6564 71.0062 59.2148 71.0062C64.2695 71.0062 68.3167 66.3437 68.3167 61.165C68.3167 55.9864 64.2695 51.3238 59.2148 51.3238ZM34.914 69.9918L68.3341 18.6503H51.6414L18.2213 69.9918H34.914ZM77.9398 61.7167C77.9398 72.0918 69.828 80.3847 59.7185 80.3847H8.61558V27.4949C8.61558 17.1376 16.7274 8.31075 26.8369 8.31075H77.9745V61.7167H77.9398ZM75.9423 0H26.8369C12.1765 0 0 11.9233 0 27.4949V78.3204C0 84.0151 4.55097 88.6777 10.6305 88.6777H59.7359C74.3963 88.6777 86.5728 76.7543 86.5728 61.6989V10.8734C86.5554 4.66256 82.0044 0 75.9423 0ZM18.2213 27.4771C18.2213 33.1718 22.2685 37.3183 27.3232 37.3183C32.8817 37.3183 36.9289 33.1718 36.9289 27.4771C36.9289 22.2984 32.8817 18.152 27.3232 18.152C22.2859 18.152 18.2213 22.2984 18.2213 27.4771Z" fill="white"/>
</svg>
